<mxfile host="Electron" modified="2023-04-08T11:48:35.655Z" agent="Mozilla/5.0 (Windows NT 10.0; Win64; x64) AppleWebKit/537.36 (KHTML, like Gecko) draw.io/21.1.2 Chrome/106.0.5249.199 Electron/21.4.3 Safari/537.36" etag="4Ihs9qW8Sl8UjhkTMdeo" version="21.1.2" type="device">
  <diagram id="C5RBs43oDa-KdzZeNtuy" name="Page-1">
    <mxGraphModel dx="819" dy="482" grid="1" gridSize="10" guides="1" tooltips="1" connect="1" arrows="1" fold="1" page="1" pageScale="1" pageWidth="827" pageHeight="1169" math="0" shadow="0">
      <root>
        <mxCell id="WIyWlLk6GJQsqaUBKTNV-0" />
        <mxCell id="WIyWlLk6GJQsqaUBKTNV-1" parent="WIyWlLk6GJQsqaUBKTNV-0" />
        <mxCell id="j2_eS6PjK-XrskgXiQsT-20" style="edgeStyle=orthogonalEdgeStyle;rounded=0;orthogonalLoop=1;jettySize=auto;html=1;entryX=0.5;entryY=0;entryDx=0;entryDy=0;" edge="1" parent="WIyWlLk6GJQsqaUBKTNV-1" source="j2_eS6PjK-XrskgXiQsT-0" target="j2_eS6PjK-XrskgXiQsT-3">
          <mxGeometry relative="1" as="geometry" />
        </mxCell>
        <mxCell id="j2_eS6PjK-XrskgXiQsT-0" value="START" style="ellipse;whiteSpace=wrap;html=1;" vertex="1" parent="WIyWlLk6GJQsqaUBKTNV-1">
          <mxGeometry x="360" y="20" width="120" height="80" as="geometry" />
        </mxCell>
        <mxCell id="j2_eS6PjK-XrskgXiQsT-21" style="edgeStyle=orthogonalEdgeStyle;rounded=0;orthogonalLoop=1;jettySize=auto;html=1;entryX=0.5;entryY=0;entryDx=0;entryDy=0;" edge="1" parent="WIyWlLk6GJQsqaUBKTNV-1" source="j2_eS6PjK-XrskgXiQsT-3" target="j2_eS6PjK-XrskgXiQsT-4">
          <mxGeometry relative="1" as="geometry" />
        </mxCell>
        <mxCell id="j2_eS6PjK-XrskgXiQsT-3" value="int count = 0;" style="rounded=0;whiteSpace=wrap;html=1;" vertex="1" parent="WIyWlLk6GJQsqaUBKTNV-1">
          <mxGeometry x="360" y="130" width="120" height="60" as="geometry" />
        </mxCell>
        <mxCell id="j2_eS6PjK-XrskgXiQsT-6" style="edgeStyle=orthogonalEdgeStyle;rounded=0;orthogonalLoop=1;jettySize=auto;html=1;entryX=0;entryY=0.5;entryDx=0;entryDy=0;" edge="1" parent="WIyWlLk6GJQsqaUBKTNV-1" source="j2_eS6PjK-XrskgXiQsT-4" target="j2_eS6PjK-XrskgXiQsT-5">
          <mxGeometry relative="1" as="geometry" />
        </mxCell>
        <mxCell id="j2_eS6PjK-XrskgXiQsT-16" value="true" style="edgeLabel;html=1;align=center;verticalAlign=middle;resizable=0;points=[];" vertex="1" connectable="0" parent="j2_eS6PjK-XrskgXiQsT-6">
          <mxGeometry x="-0.281" y="1" relative="1" as="geometry">
            <mxPoint as="offset" />
          </mxGeometry>
        </mxCell>
        <mxCell id="j2_eS6PjK-XrskgXiQsT-15" style="edgeStyle=orthogonalEdgeStyle;rounded=0;orthogonalLoop=1;jettySize=auto;html=1;" edge="1" parent="WIyWlLk6GJQsqaUBKTNV-1" source="j2_eS6PjK-XrskgXiQsT-4">
          <mxGeometry relative="1" as="geometry">
            <mxPoint x="330" y="410" as="targetPoint" />
          </mxGeometry>
        </mxCell>
        <mxCell id="j2_eS6PjK-XrskgXiQsT-17" value="false" style="edgeLabel;html=1;align=center;verticalAlign=middle;resizable=0;points=[];" vertex="1" connectable="0" parent="j2_eS6PjK-XrskgXiQsT-15">
          <mxGeometry x="-0.143" y="-2" relative="1" as="geometry">
            <mxPoint as="offset" />
          </mxGeometry>
        </mxCell>
        <mxCell id="j2_eS6PjK-XrskgXiQsT-4" value="for (int i = 0; i &amp;lt; array.Length; i++)" style="shape=hexagon;perimeter=hexagonPerimeter2;whiteSpace=wrap;html=1;fixedSize=1;" vertex="1" parent="WIyWlLk6GJQsqaUBKTNV-1">
          <mxGeometry x="360" y="230" width="120" height="80" as="geometry" />
        </mxCell>
        <mxCell id="j2_eS6PjK-XrskgXiQsT-8" style="edgeStyle=orthogonalEdgeStyle;rounded=0;orthogonalLoop=1;jettySize=auto;html=1;" edge="1" parent="WIyWlLk6GJQsqaUBKTNV-1" source="j2_eS6PjK-XrskgXiQsT-5" target="j2_eS6PjK-XrskgXiQsT-7">
          <mxGeometry relative="1" as="geometry">
            <Array as="points">
              <mxPoint x="750" y="270" />
            </Array>
          </mxGeometry>
        </mxCell>
        <mxCell id="j2_eS6PjK-XrskgXiQsT-9" value="true" style="edgeLabel;html=1;align=center;verticalAlign=middle;resizable=0;points=[];" vertex="1" connectable="0" parent="j2_eS6PjK-XrskgXiQsT-8">
          <mxGeometry x="0.0671" y="-2" relative="1" as="geometry">
            <mxPoint as="offset" />
          </mxGeometry>
        </mxCell>
        <mxCell id="j2_eS6PjK-XrskgXiQsT-5" value="&lt;font style=&quot;font-size: 10px;&quot;&gt;if (array[i].Length &amp;lt;= sizeword)&lt;/font&gt;" style="rhombus;whiteSpace=wrap;html=1;" vertex="1" parent="WIyWlLk6GJQsqaUBKTNV-1">
          <mxGeometry x="540" y="210" width="120" height="120" as="geometry" />
        </mxCell>
        <mxCell id="j2_eS6PjK-XrskgXiQsT-10" style="edgeStyle=orthogonalEdgeStyle;rounded=0;orthogonalLoop=1;jettySize=auto;html=1;entryX=0.665;entryY=1;entryDx=0;entryDy=0;entryPerimeter=0;" edge="1" parent="WIyWlLk6GJQsqaUBKTNV-1" source="j2_eS6PjK-XrskgXiQsT-7" target="j2_eS6PjK-XrskgXiQsT-4">
          <mxGeometry relative="1" as="geometry">
            <mxPoint x="410" y="380" as="targetPoint" />
            <Array as="points">
              <mxPoint x="440" y="400" />
            </Array>
          </mxGeometry>
        </mxCell>
        <mxCell id="j2_eS6PjK-XrskgXiQsT-7" value="&amp;nbsp;count++;" style="rounded=0;whiteSpace=wrap;html=1;" vertex="1" parent="WIyWlLk6GJQsqaUBKTNV-1">
          <mxGeometry x="690" y="350" width="120" height="60" as="geometry" />
        </mxCell>
        <mxCell id="j2_eS6PjK-XrskgXiQsT-12" value="" style="endArrow=none;html=1;rounded=0;entryX=0.5;entryY=1;entryDx=0;entryDy=0;" edge="1" parent="WIyWlLk6GJQsqaUBKTNV-1" target="j2_eS6PjK-XrskgXiQsT-5">
          <mxGeometry width="50" height="50" relative="1" as="geometry">
            <mxPoint x="600" y="400" as="sourcePoint" />
            <mxPoint x="620" y="330" as="targetPoint" />
          </mxGeometry>
        </mxCell>
        <mxCell id="j2_eS6PjK-XrskgXiQsT-13" value="false" style="edgeLabel;html=1;align=center;verticalAlign=middle;resizable=0;points=[];" vertex="1" connectable="0" parent="j2_eS6PjK-XrskgXiQsT-12">
          <mxGeometry x="0.4971" relative="1" as="geometry">
            <mxPoint as="offset" />
          </mxGeometry>
        </mxCell>
        <mxCell id="j2_eS6PjK-XrskgXiQsT-19" style="edgeStyle=orthogonalEdgeStyle;rounded=0;orthogonalLoop=1;jettySize=auto;html=1;entryX=0.5;entryY=0;entryDx=0;entryDy=0;" edge="1" parent="WIyWlLk6GJQsqaUBKTNV-1" source="j2_eS6PjK-XrskgXiQsT-14" target="j2_eS6PjK-XrskgXiQsT-18">
          <mxGeometry relative="1" as="geometry" />
        </mxCell>
        <mxCell id="j2_eS6PjK-XrskgXiQsT-14" value="&lt;div&gt;string[] array1 = new string[count];&lt;/div&gt;&lt;div&gt;&amp;nbsp; &amp;nbsp; count = 0;&lt;/div&gt;" style="rounded=0;whiteSpace=wrap;html=1;" vertex="1" parent="WIyWlLk6GJQsqaUBKTNV-1">
          <mxGeometry x="270" y="410" width="120" height="60" as="geometry" />
        </mxCell>
        <mxCell id="j2_eS6PjK-XrskgXiQsT-36" style="edgeStyle=orthogonalEdgeStyle;rounded=0;orthogonalLoop=1;jettySize=auto;html=1;" edge="1" parent="WIyWlLk6GJQsqaUBKTNV-1" source="j2_eS6PjK-XrskgXiQsT-18">
          <mxGeometry relative="1" as="geometry">
            <mxPoint x="190" y="560" as="targetPoint" />
          </mxGeometry>
        </mxCell>
        <mxCell id="j2_eS6PjK-XrskgXiQsT-18" value="for (int i = 0; i &amp;lt; array.Length; i++)" style="shape=hexagon;perimeter=hexagonPerimeter2;whiteSpace=wrap;html=1;fixedSize=1;" vertex="1" parent="WIyWlLk6GJQsqaUBKTNV-1">
          <mxGeometry x="270" y="520" width="120" height="80" as="geometry" />
        </mxCell>
        <mxCell id="j2_eS6PjK-XrskgXiQsT-27" style="edgeStyle=orthogonalEdgeStyle;rounded=0;orthogonalLoop=1;jettySize=auto;html=1;entryX=0;entryY=0.5;entryDx=0;entryDy=0;" edge="1" parent="WIyWlLk6GJQsqaUBKTNV-1" target="j2_eS6PjK-XrskgXiQsT-31">
          <mxGeometry relative="1" as="geometry">
            <mxPoint x="390" y="561" as="sourcePoint" />
          </mxGeometry>
        </mxCell>
        <mxCell id="j2_eS6PjK-XrskgXiQsT-28" value="true" style="edgeLabel;html=1;align=center;verticalAlign=middle;resizable=0;points=[];" vertex="1" connectable="0" parent="j2_eS6PjK-XrskgXiQsT-27">
          <mxGeometry x="-0.281" y="1" relative="1" as="geometry">
            <mxPoint as="offset" />
          </mxGeometry>
        </mxCell>
        <mxCell id="j2_eS6PjK-XrskgXiQsT-29" style="edgeStyle=orthogonalEdgeStyle;rounded=0;orthogonalLoop=1;jettySize=auto;html=1;" edge="1" parent="WIyWlLk6GJQsqaUBKTNV-1" source="j2_eS6PjK-XrskgXiQsT-31" target="j2_eS6PjK-XrskgXiQsT-33">
          <mxGeometry relative="1" as="geometry">
            <Array as="points">
              <mxPoint x="660" y="561" />
            </Array>
          </mxGeometry>
        </mxCell>
        <mxCell id="j2_eS6PjK-XrskgXiQsT-30" value="true" style="edgeLabel;html=1;align=center;verticalAlign=middle;resizable=0;points=[];" vertex="1" connectable="0" parent="j2_eS6PjK-XrskgXiQsT-29">
          <mxGeometry x="0.0671" y="-2" relative="1" as="geometry">
            <mxPoint as="offset" />
          </mxGeometry>
        </mxCell>
        <mxCell id="j2_eS6PjK-XrskgXiQsT-31" value="&lt;font style=&quot;font-size: 10px;&quot;&gt;if (array[i].Length &amp;lt;= sizeword)&lt;/font&gt;" style="rhombus;whiteSpace=wrap;html=1;" vertex="1" parent="WIyWlLk6GJQsqaUBKTNV-1">
          <mxGeometry x="450" y="501" width="120" height="120" as="geometry" />
        </mxCell>
        <mxCell id="j2_eS6PjK-XrskgXiQsT-32" style="edgeStyle=orthogonalEdgeStyle;rounded=0;orthogonalLoop=1;jettySize=auto;html=1;entryX=0.665;entryY=1;entryDx=0;entryDy=0;entryPerimeter=0;" edge="1" parent="WIyWlLk6GJQsqaUBKTNV-1" source="j2_eS6PjK-XrskgXiQsT-33">
          <mxGeometry relative="1" as="geometry">
            <mxPoint x="350" y="601" as="targetPoint" />
            <Array as="points">
              <mxPoint x="350" y="691" />
            </Array>
          </mxGeometry>
        </mxCell>
        <mxCell id="j2_eS6PjK-XrskgXiQsT-33" value="array1[count] = array[i];&lt;br&gt;&amp;nbsp;count++;" style="rounded=0;whiteSpace=wrap;html=1;" vertex="1" parent="WIyWlLk6GJQsqaUBKTNV-1">
          <mxGeometry x="600" y="641" width="140" height="60" as="geometry" />
        </mxCell>
        <mxCell id="j2_eS6PjK-XrskgXiQsT-34" value="" style="endArrow=none;html=1;rounded=0;entryX=0.5;entryY=1;entryDx=0;entryDy=0;" edge="1" parent="WIyWlLk6GJQsqaUBKTNV-1" target="j2_eS6PjK-XrskgXiQsT-31">
          <mxGeometry width="50" height="50" relative="1" as="geometry">
            <mxPoint x="510" y="691" as="sourcePoint" />
            <mxPoint x="530" y="621" as="targetPoint" />
          </mxGeometry>
        </mxCell>
        <mxCell id="j2_eS6PjK-XrskgXiQsT-35" value="false" style="edgeLabel;html=1;align=center;verticalAlign=middle;resizable=0;points=[];" vertex="1" connectable="0" parent="j2_eS6PjK-XrskgXiQsT-34">
          <mxGeometry x="0.4971" relative="1" as="geometry">
            <mxPoint as="offset" />
          </mxGeometry>
        </mxCell>
        <mxCell id="j2_eS6PjK-XrskgXiQsT-37" value="return array1;" style="ellipse;whiteSpace=wrap;html=1;" vertex="1" parent="WIyWlLk6GJQsqaUBKTNV-1">
          <mxGeometry x="70" y="520" width="120" height="80" as="geometry" />
        </mxCell>
      </root>
    </mxGraphModel>
  </diagram>
</mxfile>
